<svg width="48" height="11" viewBox="0 0 48 11" fill="none" xmlns="http://www.w3.org/2000/svg">
<path d="M4.07188 8.21L4.33188 7.39C4.98521 7.39 5.52521 7.36667 5.95188 7.32C6.37854 7.26667 6.70854 7.18667 6.94188 7.08C7.18188 6.96667 7.34854 6.82333 7.44188 6.65C7.53521 6.47 7.57521 6.25333 7.56188 6L7.37188 0.86H8.18188L8.38188 5.91C8.39521 6.25 8.44854 6.51667 8.54188 6.71C8.64188 6.90333 8.77521 7.04 8.94188 7.12C9.10854 7.19333 9.29188 7.23 9.49188 7.23C9.63188 7.23 9.73188 7.27 9.79188 7.35C9.85854 7.42333 9.89188 7.51333 9.89188 7.62C9.89188 7.72667 9.84521 7.82667 9.75188 7.92C9.65854 8.00667 9.53854 8.05 9.39188 8.05C9.07854 8.05 8.82521 8.00333 8.63188 7.91C8.43854 7.81 8.28854 7.68667 8.18188 7.54C8.08188 7.39333 8.01521 7.24 7.98188 7.08L8.19188 7.09C8.05854 7.29667 7.87854 7.47333 7.65188 7.62C7.42521 7.76 7.14521 7.87333 6.81188 7.96C6.47854 8.04667 6.08521 8.11 5.63188 8.15C5.18521 8.19 4.66521 8.21 4.07188 8.21ZM3.81188 5.96L3.62188 5.33C3.90188 5.25667 4.12854 5.19333 4.30188 5.14C4.47521 5.08667 4.59854 5.03667 4.67188 4.99C4.75188 4.93667 4.79188 4.88333 4.79188 4.83C4.79188 4.75667 4.75188 4.69 4.67188 4.63C4.59854 4.56333 4.51188 4.49667 4.41188 4.43C4.31854 4.35667 4.23188 4.27333 4.15188 4.18C4.07854 4.08667 4.04188 3.97333 4.04188 3.84C4.04188 3.72 4.07521 3.59667 4.14188 3.47C4.21521 3.33667 4.34188 3.2 4.52188 3.06C4.70188 2.91333 4.95521 2.76 5.28188 2.6L5.59188 3.17C5.28521 3.31667 5.05854 3.44333 4.91188 3.55C4.77188 3.65 4.70188 3.74 4.70188 3.82C4.70188 3.88 4.73854 3.94333 4.81188 4.01C4.89188 4.07667 4.97854 4.15 5.07188 4.23C5.17188 4.31 5.25854 4.40333 5.33188 4.51C5.41188 4.61 5.45187 4.73 5.45187 4.87C5.45187 4.96333 5.43188 5.05667 5.39188 5.15C5.35188 5.23667 5.27188 5.32667 5.15188 5.42C5.03854 5.50667 4.87521 5.59667 4.66188 5.69C4.44854 5.77667 4.16521 5.86667 3.81188 5.96ZM4.07188 8.21C3.47854 8.21 2.95521 8.17 2.50188 8.09C2.05521 8.01667 1.68188 7.9 1.38188 7.74C1.08188 7.58 0.855208 7.37333 0.701875 7.12C0.548542 6.86 0.471875 6.54667 0.471875 6.18C0.471875 6.01333 0.485208 5.84333 0.511875 5.67C0.538542 5.49 0.571875 5.31 0.611875 5.13C0.658542 4.95 0.705208 4.77667 0.751875 4.61L1.50188 4.8C1.47521 4.9 1.44521 5.02 1.41188 5.16C1.37854 5.29333 1.34854 5.43 1.32188 5.57C1.30188 5.71 1.29188 5.83667 1.29188 5.95C1.29188 6.29667 1.37854 6.57667 1.55188 6.79C1.73188 6.99667 2.04188 7.15 2.48188 7.25C2.92188 7.34333 3.53854 7.39 4.33188 7.39L4.53188 7.89L4.07188 8.21ZM9.39062 8.05L9.49063 7.23C9.89063 7.23 10.2673 7.19333 10.6206 7.12C10.974 7.04 11.2973 6.93667 11.5906 6.81C11.8906 6.67667 12.1473 6.52667 12.3606 6.36C12.574 6.18667 12.7373 6.01 12.8506 5.83C12.9706 5.64333 13.0306 5.46 13.0306 5.28C13.0306 5.19333 13.0006 5.10667 12.9406 5.02C12.8806 4.92667 12.7773 4.85 12.6306 4.79C12.4906 4.73 12.3006 4.7 12.0606 4.7C11.914 4.7 11.7506 4.72 11.5706 4.76C11.3906 4.8 11.2173 4.85667 11.0506 4.93C10.8906 4.99667 10.7573 5.07333 10.6506 5.16C10.8306 5.30667 10.9973 5.45 11.1506 5.59C11.3106 5.73 11.474 5.88333 11.6406 6.05C11.8073 6.21 11.9873 6.39333 12.1806 6.6C12.334 6.71333 12.504 6.81 12.6906 6.89C12.884 6.97 13.0906 7.03667 13.3106 7.09C13.5373 7.13667 13.7673 7.17333 14.0006 7.2C14.234 7.22 14.4673 7.23 14.7006 7.23C14.8406 7.23 14.9406 7.27 15.0006 7.35C15.0673 7.42333 15.1006 7.51333 15.1006 7.62C15.1006 7.72667 15.054 7.82667 14.9606 7.92C14.8673 8.00667 14.7473 8.05 14.6006 8.05C14.234 8.05 13.8573 8.01667 13.4706 7.95C13.0906 7.87667 12.734 7.77 12.4006 7.63C12.0673 7.48333 11.784 7.3 11.5506 7.08C11.4373 6.93333 11.3106 6.78667 11.1706 6.64C11.0306 6.49333 10.8773 6.34667 10.7106 6.2C10.5506 6.04667 10.3773 5.90333 10.1906 5.77C10.1506 5.73667 10.1106 5.67667 10.0706 5.59C10.0306 5.50333 9.99729 5.41333 9.97063 5.32C9.94396 5.22667 9.93063 5.15667 9.93063 5.11C9.93063 5.01 9.99396 4.89 10.1206 4.75C10.2473 4.61 10.4173 4.47667 10.6306 4.35C10.844 4.21667 11.0873 4.10667 11.3606 4.02C11.634 3.93333 11.9173 3.89 12.2106 3.89C12.5906 3.89 12.8973 3.94667 13.1306 4.06C13.3706 4.17333 13.544 4.32 13.6506 4.5C13.764 4.67333 13.8206 4.86 13.8206 5.06C13.8206 5.35333 13.7473 5.64667 13.6006 5.94C13.454 6.22667 13.244 6.49667 12.9706 6.75C12.6973 7.00333 12.3773 7.23 12.0106 7.43C11.644 7.62333 11.2373 7.77667 10.7906 7.89C10.3506 7.99667 9.88396 8.05 9.39062 8.05ZM14.6055 8.05L14.7055 7.23C14.8721 7.23 15.0555 7.23 15.2555 7.23C15.4621 7.22333 15.6688 7.21667 15.8755 7.21C16.0888 7.20333 16.2855 7.19 16.4655 7.17C16.6455 7.14333 16.7955 7.11 16.9155 7.07C17.1555 6.98333 17.3421 6.87667 17.4755 6.75C17.6088 6.61667 17.7021 6.44333 17.7555 6.23C17.8155 6.01 17.8455 5.73 17.8455 5.39C17.8455 5.11 17.8088 4.85 17.7355 4.61C17.6621 4.37 17.5588 4.17667 17.4255 4.03C17.2921 3.88333 17.1321 3.81 16.9455 3.81C16.7921 3.81 16.6521 3.87 16.5255 3.99C16.4055 4.10333 16.3088 4.25 16.2355 4.43C16.1688 4.61 16.1355 4.79 16.1355 4.97C16.1355 5.11 16.1621 5.23 16.2155 5.33C16.2755 5.43 16.3721 5.51 16.5055 5.57C16.6388 5.62333 16.8121 5.65 17.0255 5.65C17.2188 5.65 17.4121 5.63 17.6055 5.59C17.8055 5.55 17.9755 5.49667 18.1155 5.43L18.1555 6.13C18.0488 6.20333 17.9288 6.26333 17.7955 6.31C17.6621 6.35667 17.5221 6.39 17.3755 6.41C17.2288 6.43 17.0821 6.44 16.9355 6.44C16.5955 6.44 16.3055 6.38667 16.0655 6.28C15.8321 6.16667 15.6521 6.01667 15.5255 5.83C15.4055 5.63667 15.3455 5.41667 15.3455 5.17C15.3455 4.91667 15.3855 4.66333 15.4655 4.41C15.5455 4.15 15.6588 3.91333 15.8055 3.7C15.9521 3.48667 16.1288 3.31667 16.3355 3.19C16.5421 3.05667 16.7721 2.99 17.0255 2.99C17.3855 2.99 17.6821 3.10667 17.9155 3.34C18.1555 3.57333 18.3321 3.88 18.4455 4.26C18.5655 4.63333 18.6255 5.03 18.6255 5.45C18.6255 5.95 18.5388 6.38 18.3655 6.74C18.1988 7.09333 17.9188 7.38667 17.5255 7.62C17.3721 7.70667 17.1855 7.78 16.9655 7.84C16.7521 7.89333 16.5155 7.93667 16.2555 7.97C16.0021 8.00333 15.7355 8.02333 15.4555 8.03C15.1755 8.04333 14.8921 8.05 14.6055 8.05ZM17.5355 1.96C17.3955 1.96 17.2755 1.91333 17.1755 1.82C17.0821 1.72 17.0355 1.60333 17.0355 1.47C17.0355 1.33667 17.0821 1.22 17.1755 1.12C17.2755 1.02 17.3955 0.97 17.5355 0.97C17.6688 0.97 17.7821 1.02 17.8755 1.12C17.9755 1.22 18.0255 1.33667 18.0255 1.47C18.0255 1.60333 17.9755 1.72 17.8755 1.82C17.7821 1.91333 17.6688 1.96 17.5355 1.96ZM16.1655 1.96C16.0255 1.96 15.9055 1.91333 15.8055 1.82C15.7121 1.72 15.6655 1.60333 15.6655 1.47C15.6655 1.33667 15.7121 1.22 15.8055 1.12C15.9055 1.02 16.0255 0.97 16.1655 0.97C16.2988 0.97 16.4121 1.02 16.5055 1.12C16.6055 1.22 16.6555 1.33667 16.6555 1.47C16.6555 1.60333 16.6055 1.72 16.5055 1.82C16.4121 1.91333 16.2988 1.96 16.1655 1.96ZM19.6581 10.3L19.4781 9.48C19.8781 9.42667 20.2448 9.35 20.5781 9.25C20.9181 9.15667 21.2081 9.02 21.4481 8.84C21.6948 8.66 21.8848 8.42333 22.0181 8.13C22.1515 7.83667 22.2181 7.47 22.2181 7.03C22.2181 6.57667 22.1348 6.2 21.9681 5.9C21.8015 5.6 21.5848 5.45 21.3181 5.45C21.1781 5.45 21.0481 5.50333 20.9281 5.61C20.8081 5.71667 20.7081 5.86 20.6281 6.04C20.5548 6.22 20.5181 6.41667 20.5181 6.63C20.5181 6.75 20.5448 6.85 20.5981 6.93C20.6515 7.00333 20.7281 7.06333 20.8281 7.11C20.9348 7.15 21.0681 7.18 21.2281 7.2C21.3881 7.22 21.5748 7.23 21.7881 7.23H23.8981C24.0381 7.23 24.1381 7.27 24.1981 7.35C24.2648 7.42333 24.2981 7.51333 24.2981 7.62C24.2981 7.72667 24.2515 7.82667 24.1581 7.92C24.0648 8.00667 23.9448 8.05 23.7981 8.05H21.4081C21.1081 8.05 20.8281 8.00667 20.5681 7.92C20.3148 7.83333 20.1081 7.7 19.9481 7.52C19.7948 7.33333 19.7181 7.09 19.7181 6.79C19.7181 6.51 19.7615 6.24333 19.8481 5.99C19.9348 5.73 20.0515 5.5 20.1981 5.3C20.3515 5.09333 20.5281 4.93 20.7281 4.81C20.9348 4.69 21.1581 4.63 21.3981 4.63C21.7048 4.63 21.9781 4.72 22.2181 4.9C22.4581 5.08 22.6481 5.35333 22.7881 5.72C22.9281 6.08 22.9981 6.53667 22.9981 7.09C22.9981 7.71 22.8715 8.24333 22.6181 8.69C22.3715 9.14333 21.9981 9.50333 21.4981 9.77C21.0048 10.0367 20.3915 10.2133 19.6581 10.3ZM23.7949 8.05L23.8949 7.23C24.0816 7.23 24.2383 7.19 24.3649 7.11C24.4916 7.03 24.6149 6.89667 24.7349 6.71C24.8549 6.52333 24.9849 6.27333 25.1249 5.96C25.3183 5.53333 25.5083 5.21 25.6949 4.99C25.8883 4.77 26.0783 4.62 26.2649 4.54C26.4583 4.46 26.6483 4.42 26.8349 4.42C27.0616 4.42 27.2716 4.48 27.4649 4.6C27.6583 4.71333 27.8283 4.86667 27.9749 5.06C28.1216 5.25333 28.2349 5.46667 28.3149 5.7C28.4016 5.92667 28.4449 6.15333 28.4449 6.38C28.4449 6.78 28.3749 7.1 28.2349 7.34C28.0949 7.57333 27.9149 7.74333 27.6949 7.85C27.4816 7.95 27.2583 8 27.0249 8C26.8183 8 26.5516 7.96 26.2249 7.88C25.9049 7.8 25.4983 7.59667 25.0049 7.27L25.3949 6.64C25.7216 6.84667 26.0149 6.99 26.2749 7.07C26.5416 7.14333 26.7616 7.18 26.9349 7.18C27.1283 7.18 27.2816 7.15333 27.3949 7.1C27.5083 7.04 27.5916 6.95667 27.6449 6.85C27.6983 6.74333 27.7249 6.62333 27.7249 6.49C27.7249 6.29667 27.6783 6.10333 27.5849 5.91C27.4916 5.71667 27.3716 5.55667 27.2249 5.43C27.0849 5.30333 26.9349 5.24 26.7749 5.24C26.6549 5.24 26.5383 5.27333 26.4249 5.34C26.3116 5.40667 26.1949 5.53 26.0749 5.71C25.9549 5.89 25.8183 6.15 25.6649 6.49C25.5049 6.85 25.3516 7.13667 25.2049 7.35C25.0649 7.55667 24.9216 7.71 24.7749 7.81C24.6283 7.91 24.4749 7.97333 24.3149 8C24.1616 8.03333 23.9883 8.05 23.7949 8.05ZM31.9013 10.32L31.6113 9.56C32.098 9.4 32.5013 9.21667 32.8213 9.01C33.148 8.80333 33.4047 8.58333 33.5913 8.35C33.7847 8.11667 33.9213 7.88 34.0013 7.64C34.0813 7.39333 34.1213 7.15667 34.1213 6.93C34.1213 6.60333 34.048 6.27333 33.9013 5.94C33.7613 5.6 33.6047 5.28 33.4313 4.98L34.1613 4.61C34.288 4.84333 34.398 5.07333 34.4913 5.3C34.5913 5.52667 34.678 5.74 34.7513 5.94C34.8313 6.14 34.8947 6.32333 34.9413 6.49C35.0347 6.77667 35.1547 6.97333 35.3013 7.08C35.4547 7.18 35.6613 7.23 35.9213 7.23C36.0613 7.23 36.1613 7.27 36.2213 7.35C36.288 7.42333 36.3213 7.51333 36.3213 7.62C36.3213 7.72667 36.2747 7.82667 36.1813 7.92C36.088 8.00667 35.968 8.05 35.8213 8.05C35.528 8.05 35.288 8 35.1013 7.9C34.9213 7.79333 34.7847 7.65667 34.6913 7.49C34.598 7.31667 34.5347 7.13667 34.5013 6.95L34.8213 7.13C34.8213 7.57 34.7213 7.97 34.5213 8.33C34.328 8.69667 34.078 9.01333 33.7713 9.28C33.4647 9.55333 33.1447 9.77667 32.8113 9.95C32.478 10.1233 32.1747 10.2467 31.9013 10.32ZM35.8262 8.05L35.9262 7.23C36.2595 7.23 36.5195 7.20667 36.7062 7.16C36.8928 7.10667 37.0328 7.01 37.1262 6.87C37.2262 6.72333 37.3062 6.51333 37.3662 6.24C37.4262 5.96667 37.4995 5.61 37.5862 5.17L38.3662 5.32C38.3395 5.44 38.3095 5.57333 38.2762 5.72C38.2428 5.86667 38.2128 6.01333 38.1862 6.16C38.1662 6.3 38.1562 6.42333 38.1562 6.53C38.1562 6.63 38.1628 6.72333 38.1762 6.81C38.1895 6.89667 38.2395 6.97 38.3262 7.03C38.4128 7.09 38.5595 7.14 38.7662 7.18C38.9728 7.21333 39.2695 7.23 39.6562 7.23C39.7962 7.23 39.8962 7.27 39.9562 7.35C40.0228 7.42333 40.0562 7.51333 40.0562 7.62C40.0562 7.72667 40.0095 7.82667 39.9162 7.92C39.8228 8.00667 39.7028 8.05 39.5562 8.05C39.1495 8.05 38.8262 8.03 38.5862 7.99C38.3462 7.94333 38.1628 7.87667 38.0362 7.79C37.9162 7.70333 37.8295 7.59667 37.7762 7.47C37.7295 7.33667 37.6928 7.18333 37.6662 7.01L37.9662 7.03C37.8595 7.24333 37.7428 7.41667 37.6162 7.55C37.4962 7.68333 37.3562 7.78667 37.1962 7.86C37.0362 7.93333 36.8428 7.98333 36.6162 8.01C36.3962 8.03667 36.1328 8.05 35.8262 8.05ZM38.4962 4.14C38.3562 4.14 38.2362 4.09333 38.1362 4C38.0428 3.9 37.9962 3.78333 37.9962 3.65C37.9962 3.51667 38.0428 3.4 38.1362 3.3C38.2362 3.2 38.3562 3.15 38.4962 3.15C38.6295 3.15 38.7428 3.2 38.8362 3.3C38.9362 3.4 38.9862 3.51667 38.9862 3.65C38.9862 3.78333 38.9362 3.9 38.8362 4C38.7428 4.09333 38.6295 4.14 38.4962 4.14ZM37.1262 4.14C36.9862 4.14 36.8662 4.09333 36.7662 4C36.6728 3.9 36.6262 3.78333 36.6262 3.65C36.6262 3.51667 36.6728 3.4 36.7662 3.3C36.8662 3.2 36.9862 3.15 37.1262 3.15C37.2595 3.15 37.3728 3.2 37.4662 3.3C37.5662 3.4 37.6162 3.51667 37.6162 3.65C37.6162 3.78333 37.5662 3.9 37.4662 4C37.3728 4.09333 37.2595 4.14 37.1262 4.14ZM39.5566 8.05L39.6466 7.23C39.9933 7.23 40.3333 7.20333 40.6666 7.15C41 7.09667 41.3266 7.02 41.6466 6.92C41.9666 6.82 42.2733 6.7 42.5666 6.56C42.8666 6.41333 43.15 6.24667 43.4166 6.06C43.2433 5.90667 43.0433 5.77333 42.8166 5.66C42.59 5.54667 42.34 5.46 42.0666 5.4C41.8 5.33333 41.5166 5.3 41.2166 5.3C41.11 5.3 41.01 5.30333 40.9166 5.31C40.8233 5.31667 40.73 5.33 40.6366 5.35C40.5433 5.36333 40.4366 5.38333 40.3166 5.41L40.1566 4.65C40.3366 4.59667 40.5166 4.55667 40.6966 4.53C40.8766 4.49667 41.05 4.48 41.2166 4.48C41.5633 4.48 41.8766 4.52333 42.1566 4.61C42.4366 4.69 42.69 4.79 42.9166 4.91C43.15 5.03 43.3666 5.15 43.5666 5.27C43.7733 5.39 43.9733 5.49333 44.1666 5.58C44.36 5.66 44.56 5.7 44.7666 5.7H44.9766L45.0466 6.42C44.76 6.42 44.4966 6.46 44.2566 6.54C44.0166 6.62 43.78 6.72333 43.5466 6.85C43.32 6.97 43.08 7.1 42.8266 7.24C42.5733 7.37333 42.2933 7.50333 41.9866 7.63C41.68 7.75 41.3266 7.85 40.9266 7.93C40.5333 8.01 40.0766 8.05 39.5566 8.05ZM41.2266 3.45C41.0866 3.45 40.9666 3.40333 40.8666 3.31C40.7733 3.21 40.7266 3.09333 40.7266 2.96C40.7266 2.82667 40.7733 2.71 40.8666 2.61C40.9666 2.51 41.0866 2.46 41.2266 2.46C41.36 2.46 41.4733 2.51 41.5666 2.61C41.6666 2.71 41.7166 2.82667 41.7166 2.96C41.7166 3.09333 41.6666 3.21 41.5666 3.31C41.4733 3.40333 41.36 3.45 41.2266 3.45ZM46.3653 8L46.1653 0.86H46.9753L47.1753 8H46.3653Z" fill="black"/>
</svg>
