<svg width="39" height="9" viewBox="0 0 39 9" fill="none" xmlns="http://www.w3.org/2000/svg">
<path d="M3.06618 8.758C2.75818 8.758 2.46885 8.72533 2.19818 8.66C1.92751 8.59467 1.68951 8.49433 1.48418 8.359C1.28351 8.22367 1.12485 8.04867 1.00818 7.834C0.89618 7.61933 0.84018 7.365 0.84018 7.071C0.84018 6.76767 0.90318 6.49933 1.02918 6.266C1.15518 6.03733 1.31618 5.83667 1.51218 5.664C1.70818 5.48667 1.91585 5.328 2.13518 5.188C2.35918 5.04333 2.56918 4.90567 2.76518 4.775C2.96118 4.64433 3.12218 4.51133 3.24818 4.376C3.37418 4.236 3.43718 4.082 3.43718 3.914C3.43718 3.85333 3.42085 3.79733 3.38818 3.746C3.36018 3.69 3.31118 3.64567 3.24118 3.613C3.17585 3.57567 3.08251 3.557 2.96118 3.557C2.88185 3.557 2.80018 3.56633 2.71618 3.585C2.63218 3.599 2.55051 3.62 2.47118 3.648C2.39185 3.67133 2.31718 3.70167 2.24718 3.739C2.36851 3.837 2.48751 3.94667 2.60418 4.068C2.72551 4.18467 2.83518 4.299 2.93318 4.411C3.03585 4.51833 3.11518 4.61167 3.17118 4.691C3.27851 4.747 3.39518 4.79833 3.52118 4.845C3.64718 4.887 3.78018 4.92433 3.92018 4.957C4.06485 4.98967 4.21418 5.01533 4.36818 5.034C4.52218 5.048 4.68085 5.055 4.84418 5.055C5.02151 5.055 5.14751 5.10167 5.22218 5.195C5.29685 5.28367 5.33418 5.39567 5.33418 5.531C5.33418 5.67567 5.28518 5.797 5.18718 5.895C5.08918 5.98833 4.95151 6.035 4.77418 6.035C4.38685 6.035 4.05551 6.007 3.78018 5.951C3.50951 5.895 3.26451 5.811 3.04518 5.699C2.83051 5.58233 2.60885 5.44 2.38018 5.272C2.32418 5.174 2.24251 5.06667 2.13518 4.95C2.02785 4.82867 1.91818 4.71433 1.80618 4.607C1.69885 4.49967 1.60785 4.41567 1.53318 4.355C1.51918 4.341 1.49585 4.29433 1.46318 4.215C1.43051 4.131 1.40018 4.04233 1.37218 3.949C1.34885 3.85567 1.33718 3.79033 1.33718 3.753C1.33718 3.65967 1.38151 3.55467 1.47018 3.438C1.55885 3.31667 1.68251 3.20233 1.84118 3.095C2.00451 2.983 2.19351 2.892 2.40818 2.822C2.62285 2.74733 2.85618 2.71 3.10818 2.71C3.56551 2.71 3.89451 2.808 4.09518 3.004C4.30051 3.19533 4.40318 3.44267 4.40318 3.746C4.40318 4.026 4.34018 4.27567 4.21418 4.495C4.09285 4.71433 3.93418 4.915 3.73818 5.097C3.54218 5.279 3.33451 5.447 3.11518 5.601C2.90051 5.755 2.69518 5.90433 2.49918 6.049C2.30318 6.19833 2.14218 6.34767 2.01618 6.497C1.89485 6.651 1.83418 6.81667 1.83418 6.994C1.83418 7.14333 1.87151 7.267 1.94618 7.365C2.02551 7.46767 2.12585 7.54933 2.24718 7.61C2.36851 7.67067 2.50151 7.71267 2.64618 7.736C2.79551 7.764 2.94018 7.778 3.08018 7.778C3.22485 7.778 3.37418 7.76633 3.52818 7.743C3.68685 7.71967 3.85018 7.68233 4.01818 7.631C4.19085 7.58433 4.36818 7.52367 4.55018 7.449L4.84418 8.289C4.66685 8.38233 4.47785 8.464 4.27718 8.534C4.07651 8.60867 3.87351 8.66467 3.66818 8.702C3.46285 8.73933 3.26218 8.758 3.06618 8.758ZM4.77637 6.035L4.84637 5.062C5.2337 5.062 5.54403 5.05967 5.77737 5.055C6.01537 5.05033 6.1997 5.041 6.33037 5.027C6.4657 5.00833 6.56603 4.98733 6.63137 4.964C6.6967 4.936 6.7527 4.90567 6.79937 4.873C6.85537 4.831 6.90203 4.775 6.93937 4.705C6.98137 4.63033 7.01403 4.53233 7.03737 4.411C7.0607 4.28967 7.07237 4.138 7.07237 3.956C7.07237 3.72733 7.05137 3.536 7.00937 3.382C6.97203 3.22333 6.91603 3.10433 6.84137 3.025C6.77137 2.94567 6.68503 2.906 6.58237 2.906C6.5077 2.906 6.4377 2.93167 6.37237 2.983C6.30703 3.02967 6.25337 3.095 6.21137 3.179C6.16937 3.263 6.14837 3.35867 6.14837 3.466C6.14837 3.52667 6.1647 3.58033 6.19737 3.627C6.23003 3.67367 6.28137 3.70867 6.35137 3.732C6.42137 3.75533 6.51003 3.767 6.61737 3.767C6.72003 3.767 6.82737 3.75533 6.93937 3.732C7.05603 3.704 7.16337 3.66667 7.26137 3.62L7.28937 4.453C7.2147 4.50433 7.12837 4.551 7.03037 4.593C6.93237 4.635 6.82737 4.66767 6.71537 4.691C6.60803 4.70967 6.49837 4.719 6.38637 4.719C6.13903 4.719 5.92437 4.68633 5.74237 4.621C5.56503 4.551 5.42737 4.439 5.32937 4.285C5.23137 4.131 5.18237 3.921 5.18237 3.655C5.18237 3.44967 5.21737 3.24667 5.28737 3.046C5.35737 2.84067 5.4577 2.65633 5.58837 2.493C5.71903 2.325 5.87303 2.192 6.05037 2.094C6.2277 1.99133 6.4237 1.94 6.63837 1.94C6.9557 1.94 7.21703 2.03333 7.42237 2.22C7.63237 2.402 7.78637 2.64933 7.88437 2.962C7.98703 3.27 8.03837 3.613 8.03837 3.991C8.03837 4.32233 7.98937 4.61167 7.89137 4.859C7.79337 5.10167 7.6767 5.293 7.54137 5.433C7.42937 5.54967 7.30103 5.64767 7.15637 5.727C7.0117 5.80633 6.83437 5.86933 6.62437 5.916C6.41903 5.958 6.1647 5.98833 5.86137 6.007C5.5627 6.02567 5.20103 6.035 4.77637 6.035ZM7.23337 1.303C7.09803 1.303 6.98137 1.25633 6.88337 1.163C6.79003 1.065 6.74337 0.950667 6.74337 0.82C6.74337 0.684666 6.79003 0.568 6.88337 0.47C6.98137 0.372 7.09803 0.323 7.23337 0.323C7.36403 0.323 7.47603 0.372 7.56937 0.47C7.6627 0.568 7.70937 0.684666 7.70937 0.82C7.70937 0.950667 7.6627 1.065 7.56937 1.163C7.47603 1.25633 7.36403 1.303 7.23337 1.303ZM6.02237 1.296C5.88703 1.296 5.77037 1.24933 5.67237 1.156C5.57903 1.058 5.53237 0.943666 5.53237 0.813C5.53237 0.677666 5.57903 0.561 5.67237 0.463C5.77037 0.365 5.88703 0.316 6.02237 0.316C6.15303 0.316 6.26503 0.365 6.35837 0.463C6.4517 0.561 6.49837 0.677666 6.49837 0.813C6.49837 0.943666 6.4517 1.058 6.35837 1.156C6.26503 1.24933 6.15303 1.296 6.02237 1.296ZM8.70955 7.61L8.50655 6.63C8.83788 6.588 9.12721 6.53667 9.37455 6.476C9.62188 6.42 9.82955 6.34067 9.99755 6.238C10.1655 6.13533 10.2915 5.99533 10.3755 5.818C10.4595 5.636 10.5015 5.40267 10.5015 5.118C10.5015 4.84267 10.4595 4.62333 10.3755 4.46C10.2915 4.29667 10.1795 4.215 10.0395 4.215C9.94155 4.215 9.85988 4.25 9.79455 4.32C9.72921 4.38533 9.68021 4.46467 9.64755 4.558C9.61955 4.64667 9.60555 4.726 9.60555 4.796C9.60555 4.838 9.61721 4.88233 9.64055 4.929C9.66388 4.97567 9.71521 5.01533 9.79455 5.048C9.87388 5.08067 9.99755 5.09933 10.1655 5.104C10.3382 5.10867 10.5715 5.09233 10.8655 5.055H12.0415C12.2189 5.055 12.3449 5.10167 12.4195 5.195C12.4989 5.28367 12.5385 5.39567 12.5385 5.531C12.5385 5.67567 12.4895 5.797 12.3915 5.895C12.2935 5.98833 12.1535 6.035 11.9715 6.035H10.0465C9.75255 6.035 9.50055 6 9.29055 5.93C9.08055 5.86 8.91955 5.748 8.80755 5.594C8.69555 5.43533 8.63955 5.22533 8.63955 4.964C8.63955 4.754 8.67455 4.544 8.74455 4.334C8.81921 4.124 8.92188 3.93267 9.05255 3.76C9.18321 3.58267 9.33488 3.44267 9.50755 3.34C9.68488 3.23267 9.87621 3.179 10.0815 3.179C10.3615 3.179 10.6065 3.26533 10.8165 3.438C11.0265 3.61067 11.1899 3.83933 11.3065 4.124C11.4279 4.40867 11.4885 4.719 11.4885 5.055C11.4885 5.58233 11.3765 6.03033 11.1525 6.399C10.9285 6.76767 10.6089 7.05233 10.1935 7.253C9.77821 7.45833 9.28355 7.57733 8.70955 7.61ZM11.9814 6.035L12.0514 5.055C12.1681 5.055 12.2568 5.03167 12.3174 4.985C12.3781 4.93833 12.4388 4.85667 12.4994 4.74C12.5601 4.62333 12.6441 4.46467 12.7514 4.264C12.8681 4.04 12.9894 3.85333 13.1154 3.704C13.2414 3.55 13.3674 3.42867 13.4934 3.34C13.6241 3.24667 13.7524 3.18133 13.8784 3.144C14.0091 3.102 14.1374 3.081 14.2634 3.081C14.4361 3.081 14.5971 3.11833 14.7464 3.193C14.9004 3.263 15.0474 3.38667 15.1874 3.564C15.3274 3.73667 15.4604 3.97467 15.5864 4.278C15.6751 4.488 15.7638 4.649 15.8524 4.761C15.9411 4.873 16.0321 4.95 16.1254 4.992C16.2234 5.034 16.3214 5.055 16.4194 5.055C16.5968 5.055 16.7228 5.10167 16.7974 5.195C16.8721 5.28367 16.9094 5.39567 16.9094 5.531C16.9094 5.67567 16.8604 5.797 16.7624 5.895C16.6644 5.98833 16.5268 6.035 16.3494 6.035C16.1208 6.035 15.9131 5.99767 15.7264 5.923C15.5398 5.84833 15.3928 5.73633 15.2854 5.587L15.4884 5.433C15.4464 5.531 15.3834 5.63367 15.2994 5.741C15.2201 5.84833 15.1151 5.93933 14.9844 6.014C14.8584 6.08867 14.7068 6.126 14.5294 6.126C14.4128 6.126 14.2751 6.10267 14.1164 6.056C13.9624 6.014 13.8014 5.94167 13.6334 5.839C13.4701 5.73167 13.3184 5.587 13.1784 5.405C13.0898 5.56833 12.9918 5.69667 12.8844 5.79C12.7771 5.87867 12.6511 5.94167 12.5064 5.979C12.3618 6.01633 12.1868 6.035 11.9814 6.035ZM13.5844 4.579C13.6311 4.649 13.6871 4.719 13.7524 4.789C13.8178 4.859 13.8901 4.922 13.9694 4.978C14.0488 5.02933 14.1328 5.07133 14.2214 5.104C14.3148 5.13667 14.4058 5.153 14.4944 5.153C14.5878 5.153 14.6648 5.118 14.7254 5.048C14.7861 4.97333 14.7884 4.86367 14.7324 4.719C14.7091 4.65833 14.6764 4.59067 14.6344 4.516C14.5971 4.43667 14.5528 4.362 14.5014 4.292C14.4548 4.222 14.4011 4.16367 14.3404 4.117C14.2844 4.07033 14.2261 4.047 14.1654 4.047C14.1048 4.047 14.0418 4.06567 13.9764 4.103C13.9111 4.14033 13.8458 4.19867 13.7804 4.278C13.7151 4.35267 13.6498 4.453 13.5844 4.579ZM16.3496 6.035L16.4196 5.055C16.6343 5.055 16.7883 5.034 16.8816 4.992C16.9749 4.94533 17.0309 4.86133 17.0496 4.74C17.0683 4.614 17.0729 4.432 17.0636 4.194L16.9376 0.876H17.9246L18.0646 4.264C18.0739 4.53467 18.0623 4.77967 18.0296 4.999C18.0016 5.21367 17.9293 5.398 17.8126 5.552C17.7006 5.706 17.5256 5.825 17.2876 5.909C17.0543 5.993 16.7416 6.035 16.3496 6.035ZM18.9877 6L18.8407 0.876H19.8207L19.9677 6H18.9877ZM22.1901 7.61L21.8331 6.714C22.2345 6.574 22.5588 6.42 22.8061 6.252C23.0581 6.084 23.2425 5.90433 23.3591 5.713C23.4805 5.52167 23.5411 5.32333 23.5411 5.118C23.5411 4.98733 23.5225 4.852 23.4851 4.712C23.4478 4.56733 23.3941 4.41567 23.3241 4.257C23.2588 4.09833 23.1795 3.93267 23.0861 3.76L24.0031 3.319C24.1665 3.63167 24.2925 3.93033 24.3811 4.215C24.4745 4.49967 24.5211 4.76567 24.5211 5.013C24.5211 5.24167 24.4908 5.461 24.4301 5.671C24.3741 5.881 24.2855 6.077 24.1641 6.259C24.0475 6.44567 23.8958 6.62067 23.7091 6.784C23.5225 6.94733 23.3031 7.09667 23.0511 7.232C22.7991 7.372 22.5121 7.498 22.1901 7.61ZM27.1614 6.035C26.7274 6.035 26.3914 5.99067 26.1534 5.902C25.92 5.81333 25.7567 5.67567 25.6634 5.489C25.57 5.29767 25.5164 5.05733 25.5024 4.768L25.3554 0.876H26.3354L26.4824 4.299C26.4917 4.51367 26.515 4.67467 26.5524 4.782C26.5897 4.88933 26.6597 4.96167 26.7624 4.999C26.8697 5.03633 27.026 5.055 27.2314 5.055C27.4087 5.055 27.5347 5.10167 27.6094 5.195C27.6887 5.28367 27.7284 5.39567 27.7284 5.531C27.7284 5.67567 27.6794 5.797 27.5814 5.895C27.4834 5.98833 27.3434 6.035 27.1614 6.035ZM27.1709 6.035L27.2409 5.055C27.4089 5.055 27.5536 5.03867 27.6749 5.006C27.7962 4.97333 27.8989 4.908 27.9829 4.81C28.0669 4.70733 28.1369 4.558 28.1929 4.362C28.2536 4.166 28.3072 3.90467 28.3539 3.578L29.2709 3.732C29.2616 3.802 29.2476 3.88367 29.2289 3.977C29.2149 4.07033 29.2009 4.166 29.1869 4.264C29.1776 4.35733 29.1729 4.446 29.1729 4.53C29.1729 4.614 29.1892 4.68867 29.2219 4.754C29.2546 4.81933 29.3059 4.87533 29.3759 4.922C29.4506 4.964 29.5462 4.99667 29.6629 5.02C29.7842 5.04333 29.9312 5.055 30.1039 5.055C30.2812 5.055 30.4072 5.10167 30.4819 5.195C30.5566 5.28367 30.5939 5.39567 30.5939 5.531C30.5939 5.67567 30.5449 5.797 30.4469 5.895C30.3536 5.98833 30.2159 6.035 30.0339 6.035C29.8239 6.035 29.6326 6.01867 29.4599 5.986C29.2919 5.95333 29.1449 5.89967 29.0189 5.825C28.8976 5.74567 28.7972 5.643 28.7179 5.517C28.6432 5.38633 28.5966 5.22767 28.5779 5.041H28.9139C28.8299 5.265 28.7226 5.44467 28.5919 5.58C28.4659 5.71067 28.3236 5.80867 28.1649 5.874C28.0062 5.93933 27.8406 5.98133 27.6679 6C27.4999 6.02333 27.3342 6.035 27.1709 6.035ZM29.1239 7.659C28.9886 7.659 28.8719 7.61 28.7739 7.512C28.6806 7.41867 28.6339 7.30667 28.6339 7.176C28.6339 7.04067 28.6806 6.924 28.7739 6.826C28.8719 6.728 28.9886 6.679 29.1239 6.679C29.2546 6.679 29.3666 6.728 29.4599 6.826C29.5532 6.924 29.5999 7.04067 29.5999 7.176C29.5999 7.30667 29.5532 7.41867 29.4599 7.512C29.3666 7.61 29.2546 7.659 29.1239 7.659ZM27.9129 7.659C27.7776 7.659 27.6609 7.61 27.5629 7.512C27.4696 7.41867 27.4229 7.30667 27.4229 7.176C27.4229 7.04067 27.4696 6.924 27.5629 6.826C27.6609 6.728 27.7776 6.679 27.9129 6.679C28.0436 6.679 28.1556 6.728 28.2489 6.826C28.3422 6.924 28.3889 7.04067 28.3889 7.176C28.3889 7.30667 28.3422 7.41867 28.2489 7.512C28.1556 7.61 28.0436 7.659 27.9129 7.659ZM30.0352 6.035L30.1052 5.055C30.2732 5.055 30.4178 5.03867 30.5392 5.006C30.6605 4.97333 30.7632 4.908 30.8472 4.81C30.9312 4.70733 31.0012 4.558 31.0572 4.362C31.1178 4.166 31.1715 3.90467 31.2182 3.578L32.1352 3.732C32.1258 3.802 32.1118 3.88367 32.0932 3.977C32.0792 4.07033 32.0652 4.166 32.0512 4.264C32.0418 4.35733 32.0372 4.446 32.0372 4.53C32.0372 4.614 32.0535 4.68867 32.0862 4.754C32.1188 4.81933 32.1702 4.87533 32.2402 4.922C32.3148 4.964 32.4105 4.99667 32.5272 5.02C32.6485 5.04333 32.7955 5.055 32.9682 5.055C33.1455 5.055 33.2715 5.10167 33.3462 5.195C33.4208 5.28367 33.4582 5.39567 33.4582 5.531C33.4582 5.67567 33.4092 5.797 33.3112 5.895C33.2178 5.98833 33.0802 6.035 32.8982 6.035C32.6882 6.035 32.4968 6.01867 32.3242 5.986C32.1562 5.95333 32.0092 5.89967 31.8832 5.825C31.7618 5.74567 31.6615 5.643 31.5822 5.517C31.5075 5.38633 31.4608 5.22767 31.4422 5.041H31.7782C31.6942 5.265 31.5868 5.44467 31.4562 5.58C31.3302 5.71067 31.1878 5.80867 31.0292 5.874C30.8705 5.93933 30.7048 5.98133 30.5322 6C30.3642 6.02333 30.1985 6.035 30.0352 6.035ZM32.2822 2.948C32.1468 2.948 32.0302 2.90133 31.9322 2.808C31.8388 2.71 31.7922 2.59567 31.7922 2.465C31.7922 2.32967 31.8388 2.213 31.9322 2.115C32.0302 2.017 32.1468 1.968 32.2822 1.968C32.4128 1.968 32.5248 2.017 32.6182 2.115C32.7115 2.213 32.7582 2.32967 32.7582 2.465C32.7582 2.59567 32.7115 2.71 32.6182 2.808C32.5248 2.90133 32.4128 2.948 32.2822 2.948ZM31.0712 2.941C30.9358 2.941 30.8192 2.89433 30.7212 2.801C30.6278 2.703 30.5812 2.58867 30.5812 2.458C30.5812 2.32267 30.6278 2.206 30.7212 2.108C30.8192 2.01 30.9358 1.961 31.0712 1.961C31.2018 1.961 31.3138 2.01 31.4072 2.108C31.5005 2.206 31.5472 2.32267 31.5472 2.458C31.5472 2.58867 31.5005 2.703 31.4072 2.801C31.3138 2.89433 31.2018 2.941 31.0712 2.941ZM32.8994 6.035L32.9694 5.055C33.2214 5.055 33.4711 5.041 33.7184 5.013C33.9657 4.985 34.2061 4.943 34.4394 4.887C34.6727 4.831 34.8944 4.75867 35.1044 4.67C35.3191 4.58133 35.5197 4.474 35.7064 4.348C35.5664 4.264 35.4147 4.19167 35.2514 4.131C35.0881 4.07033 34.9131 4.026 34.7264 3.998C34.5444 3.96533 34.3507 3.949 34.1454 3.949C34.0707 3.949 33.9914 3.95133 33.9074 3.956C33.8281 3.96067 33.7464 3.97 33.6624 3.984C33.5784 3.99333 33.4944 4.00733 33.4104 4.026L33.2704 3.067C33.4057 3.02967 33.5481 3.004 33.6974 2.99C33.8514 2.97133 33.9867 2.962 34.1034 2.962C34.3554 2.962 34.5864 2.99 34.7964 3.046C35.0111 3.102 35.2071 3.172 35.3844 3.256C35.5664 3.34 35.7344 3.424 35.8884 3.508C36.0471 3.592 36.1964 3.662 36.3364 3.718C36.4811 3.774 36.6211 3.802 36.7564 3.802H37.0154L37.1274 4.733C36.9267 4.74233 36.7377 4.782 36.5604 4.852C36.3877 4.91733 36.2151 5.00133 36.0424 5.104C35.8744 5.202 35.6924 5.30467 35.4964 5.412C35.3051 5.51933 35.0881 5.61967 34.8454 5.713C34.6027 5.80633 34.3227 5.88333 34.0054 5.944C33.6881 6.00467 33.3194 6.035 32.8994 6.035ZM34.1104 2.311C33.9657 2.311 33.8421 2.262 33.7394 2.164C33.6414 2.066 33.5924 1.94467 33.5924 1.8C33.5924 1.65533 33.6414 1.53167 33.7394 1.429C33.8421 1.32633 33.9657 1.275 34.1104 1.275C34.2504 1.275 34.3694 1.32633 34.4674 1.429C34.5701 1.53167 34.6214 1.65533 34.6214 1.8C34.6214 1.94467 34.5701 2.066 34.4674 2.164C34.3694 2.262 34.2504 2.311 34.1104 2.311ZM37.8618 6L37.7148 0.876H38.6948L38.8418 6H37.8618Z" fill="white"/>
</svg>
