<svg width="80" height="79" viewBox="0 0 80 79" fill="none" xmlns="http://www.w3.org/2000/svg">
<path d="M54.2955 59.9419C49.3117 62.2747 43.5866 63.357 37.8441 63.0518C32.1016 62.7467 26.5996 61.0678 22.034 58.2275C17.4684 55.3873 14.0442 51.5132 12.1944 47.0951C10.3446 42.6771 10.1522 37.9136 11.6417 33.4069C13.1311 28.9003 16.2355 24.8529 20.5622 21.7766C24.8889 18.7003 30.2436 16.7334 35.9492 16.1244C41.6548 15.5154 47.455 16.2918 52.6163 18.3553C57.7777 20.4189 62.0683 23.6769 64.9457 27.7175C68.8042 33.1357 69.8498 39.5747 67.8525 45.6179C65.8552 51.6612 60.9786 56.8137 54.2955 59.9419ZM27.6234 22.4879C23.4702 24.4319 20.1213 27.3307 18.0003 30.8178C15.8792 34.3049 15.0812 38.2236 15.7071 42.0783C16.3331 45.9331 18.3549 49.5508 21.5169 52.474C24.6789 55.3972 28.8391 57.4945 33.4714 58.5008C38.1037 59.5071 43 59.3772 47.5412 58.1274C52.0823 56.8776 56.0644 54.5642 58.9838 51.4796C61.9033 48.395 63.6289 44.6778 63.9426 40.7981C64.2562 36.9184 63.1438 33.0504 60.746 29.6833C57.5306 25.1681 52.2345 21.8734 46.0228 20.524C39.8111 19.1746 33.1926 19.8811 27.6234 22.4879Z" fill="#101B48"/>
<path d="M49.3582 37.2834L40.9587 41.215C40.3998 41.4688 39.7408 41.5356 39.1221 41.4012C38.5034 41.2668 37.9739 40.9418 37.6464 40.4955L29.5639 29.1458C29.2424 28.6943 29.1553 28.1577 29.3217 27.6541C29.4881 27.1505 29.8945 26.7211 30.4514 26.4604C31.0084 26.1998 31.6702 26.1291 32.2914 26.2641C32.9126 26.399 33.4422 26.7285 33.7637 27.18L40.6338 36.8272L46.9335 33.8785C47.4904 33.6178 48.1522 33.5472 48.7734 33.6821C49.3946 33.817 49.9242 34.1465 50.2457 34.598C50.5673 35.0495 50.6544 35.5861 50.4879 36.0897C50.3215 36.5933 49.9151 37.0227 49.3582 37.2834Z" fill="#101B48"/>
</svg>
